{
  "asset" : {
    "generator" : "UE Viewer (umodel) build 1579 based",
    "version" : "2.0"
  },
  "scene" : 0,
  "scenes" : [
    {
      "nodes" : [ 0 ]
    }
  ],
  "nodes" : [
    {
      "name" : "SK_am0020",
      "mesh" : 0,
      "skin" : 0,
      "children" : [ 1 ]
    },
    {
      "name" : "origin",
      "children" : [ 2, 55, 56, 57 ],
      "translation" : [ 0, 0, 0 ],
      "rotation" : [ 3.06162e-17, 3.06162e-17, -9.3735e-34, 1 ]
    },
    {
      "name" : "root",
      "children" : [ 3, 54 ],
      "translation" : [ 0, 0, -0 ],
      "rotation" : [ -0, -0, 0, -1 ]
    },
    {
      "name" : "u_head",
      "children" : [ 4, 6, 8, 10, 11, 13 ],
      "translation" : [ 0, 0.00287801, -1.76227e-19 ],
      "rotation" : [ -0, -1, 6.12323e-17, -6.12323e-17 ]
    },
    {
      "name" : "l_ear_00",
      "children" : [ 5 ],
      "translation" : [ 0.0103249, 0.081865, 0.0592053 ],
      "rotation" : [ -0.563536, -0.776746, -0.224776, 0.169022 ]
    },
    {
      "name" : "l_ear_01",
      "translation" : [ 0.0319881, -8.88178e-18, -2.66454e-17 ],
      "rotation" : [ -1.38778e-17, 2.77556e-17, 2.77556e-17, -1 ]
    },
    {
      "name" : "r_ear_02",
      "children" : [ 7 ],
      "translation" : [ 0.0103249, 0.081865, -0.0592053 ],
      "rotation" : [ -0.564352, -0.775646, 0.22854, -0.166283 ]
    },
    {
      "name" : "r_ear_01",
      "translation" : [ 0.0319884, 0, -1.77636e-17 ],
      "rotation" : [ -3.85186e-34, -2.77556e-17, -1.38778e-17, -1 ]
    },
    {
      "name" : "l_eye_scale",
      "children" : [ 9 ],
      "translation" : [ -0.0822223, 0.0205245, 0.0376314 ],
      "rotation" : [ -7.04589e-33, -0.984027, 6.02543e-17, 0.178021 ]
    },
    {
      "name" : "l_iris",
      "translation" : [ -0.012314, 8.92761e-05, 2.12225e-05 ],
      "rotation" : [ 6.16298e-33, -0, -0, -1 ]
    },
    {
      "name" : "back",
      "translation" : [ 0.0974514, 0.00166902, 0.000176322 ],
      "rotation" : [ -0, -1, 6.12323e-17, -6.12323e-17 ]
    },
    {
      "name" : "r_eye_scale",
      "children" : [ 12 ],
      "translation" : [ -0.0822223, 0.0205245, -0.0376314 ],
      "rotation" : [ -0, -0.984027, 6.02543e-17, -0.178021 ]
    },
    {
      "name" : "r_iris",
      "translation" : [ -0.0123141, 8.932e-05, -2.123e-05 ],
      "rotation" : [ 6.16298e-33, -0, -0, -1 ]
    },
    {
      "name" : "face",
      "children" : [ 14, 15, 16, 17, 18, 19, 20, 21, 22, 23, 24, 25, 26, 27, 28, 29, 30, 31, 32, 33, 34, 35, 36, 37, 38, 39, 40, 41, 42, 43, 44, 45, 46, 47, 48, 49, 50, 51, 52, 53 ],
      "translation" : [ 0, 0, -0 ],
      "rotation" : [ -0, -1, 6.12323e-17, -6.12323e-17 ]
    },
    {
      "name" : "eyeFlame_L_01",
      "translation" : [ 0.0899599, 0.0201758, -0.0146407 ],
      "rotation" : [ -2.46519e-32, 1.2326e-32, -0, -1 ]
    },
    {
      "name" : "eyeFlame_L_02",
      "translation" : [ 0.0861114, 0.0374575, -0.0206587 ],
      "rotation" : [ -2.46519e-32, 1.2326e-32, -0, -1 ]
    },
    {
      "name" : "eyeFlame_L_03",
      "translation" : [ 0.0775702, 0.0443075, -0.0362022 ],
      "rotation" : [ -2.46519e-32, 1.2326e-32, -0, -1 ]
    },
    {
      "name" : "eyeFlame_L_04",
      "translation" : [ 0.0721943, 0.0376532, -0.0522841 ],
      "rotation" : [ -2.46519e-32, 1.2326e-32, -0, -1 ]
    },
    {
      "name" : "eyeFlame_L_05",
      "translation" : [ 0.0702781, 0.0204526, -0.0593658 ],
      "rotation" : [ -2.46519e-32, 1.2326e-32, -0, -1 ]
    },
    {
      "name" : "eyeFlame_L_06",
      "translation" : [ 0.0741266, 0.00317093, -0.0533478 ],
      "rotation" : [ -2.46519e-32, 1.2326e-32, -0, -1 ]
    },
    {
      "name" : "eyeFlame_L_07",
      "translation" : [ 0.0814853, -0.00406845, -0.0377554 ],
      "rotation" : [ -2.46519e-32, 1.2326e-32, -0, -1 ]
    },
    {
      "name" : "eyeFlame_L_08",
      "translation" : [ 0.0880437, 0.0029752, -0.0217224 ],
      "rotation" : [ -2.46519e-32, 1.2326e-32, -0, -1 ]
    },
    {
      "name" : "eyeFlame_R_01",
      "translation" : [ 0.0899599, 0.0201758, 0.0146407 ],
      "rotation" : [ -0, -0, 0, -1 ]
    },
    {
      "name" : "eyeFlame_R_02",
      "translation" : [ 0.0861114, 0.0374575, 0.0206587 ],
      "rotation" : [ -0, -0, 0, -1 ]
    },
    {
      "name" : "eyeFlame_R_03",
      "translation" : [ 0.0775702, 0.0443075, 0.0362022 ],
      "rotation" : [ -0, -0, 0, -1 ]
    },
    {
      "name" : "eyeFlame_R_04",
      "translation" : [ 0.0721943, 0.0376532, 0.0522841 ],
      "rotation" : [ -0, -0, 0, -1 ]
    },
    {
      "name" : "eyeFlame_R_05",
      "translation" : [ 0.0702781, 0.0204526, 0.0593658 ],
      "rotation" : [ -0, -0, 0, -1 ]
    },
    {
      "name" : "eyeFlame_R_06",
      "translation" : [ 0.0741266, 0.00317093, 0.0533478 ],
      "rotation" : [ -0, -0, 0, -1 ]
    },
    {
      "name" : "eyeFlame_R_07",
      "translation" : [ 0.0814853, -0.00406845, 0.0377554 ],
      "rotation" : [ -0, -0, 0, -1 ]
    },
    {
      "name" : "eyeFlame_R_08",
      "translation" : [ 0.0880437, 0.00297519, 0.0217224 ],
      "rotation" : [ -0, -0, 0, -1 ]
    },
    {
      "name" : "eyeLid_up_L",
      "translation" : [ 0.0775702, 0.0449371, -0.0362022 ],
      "rotation" : [ -0, -0, 0, -1 ]
    },
    {
      "name" : "eyeLid_low_L",
      "translation" : [ 0.0793598, -0.00663953, -0.0373266 ],
      "rotation" : [ 0, 1.2326e-32, -0, -1 ]
    },
    {
      "name" : "eyeLid_in_up_L",
      "translation" : [ 0.0861959, 0.018327, -0.0182417 ],
      "rotation" : [ -6.16298e-33, 1.2326e-32, -0, -1 ]
    },
    {
      "name" : "eyeLid_in_low_L",
      "translation" : [ 0.0861953, 0.0182171, -0.0182432 ],
      "rotation" : [ -1.2326e-32, 3.69779e-32, -0, -1 ]
    },
    {
      "name" : "eyeLid_mid_up_L",
      "translation" : [ 0.0781827, 0.018428, -0.0365726 ],
      "rotation" : [ -1.2326e-32, 2.46519e-32, -0, -1 ]
    },
    {
      "name" : "eyeLid_mid_low_L",
      "translation" : [ 0.0781938, 0.0183181, -0.0365791 ],
      "rotation" : [ -6.16298e-33, -0, 0, -1 ]
    },
    {
      "name" : "eyeLid_mid_in_up_L",
      "translation" : [ 0.0820972, 0.0183468, -0.0276402 ],
      "rotation" : [ -1.2326e-32, 2.46519e-32, -0, -1 ]
    },
    {
      "name" : "eyeLid_mid_in_low_L",
      "translation" : [ 0.0821084, 0.0182369, -0.0276466 ],
      "rotation" : [ -6.16298e-33, -0, 0, -1 ]
    },
    {
      "name" : "eyeLid_mid_out_up_L",
      "translation" : [ 0.074265, 0.0184672, -0.0455492 ],
      "rotation" : [ -1.2326e-32, 2.46519e-32, -0, -1 ]
    },
    {
      "name" : "eyeLid_mid_out_low_L",
      "translation" : [ 0.0742761, 0.0183573, -0.0455556 ],
      "rotation" : [ -6.16298e-33, -0, 0, -1 ]
    },
    {
      "name" : "eyeLid_out_up_L",
      "translation" : [ 0.0701469, 0.0184951, -0.054895 ],
      "rotation" : [ -6.16298e-33, 1.2326e-32, -0, -1 ]
    },
    {
      "name" : "eyeLid_out_low_L",
      "translation" : [ 0.070158, 0.0183852, -0.0549014 ],
      "rotation" : [ -1.2326e-32, 3.69779e-32, -0, -1 ]
    },
    {
      "name" : "eyeLid_up_R",
      "translation" : [ 0.0775702, 0.0449371, 0.0362022 ],
      "rotation" : [ -6.16298e-33, 2.46519e-32, -0, -1 ]
    },
    {
      "name" : "eyeLid_low_R",
      "translation" : [ 0.0793598, -0.00663954, 0.0373266 ],
      "rotation" : [ -6.16298e-33, -0, -0, -1 ]
    },
    {
      "name" : "eyeLid_in_up_R",
      "translation" : [ 0.0861959, 0.018327, 0.0182417 ],
      "rotation" : [ 0, -1.2326e-32, 0, -1 ]
    },
    {
      "name" : "eyeLid_in_low_R",
      "translation" : [ 0.0861953, 0.0182171, 0.0182432 ],
      "rotation" : [ 0, -1.2326e-32, 0, -1 ]
    },
    {
      "name" : "eyeLid_mid_up_R",
      "translation" : [ 0.0781827, 0.018428, 0.0365726 ],
      "rotation" : [ 0, -1.2326e-32, 0, -1 ]
    },
    {
      "name" : "eyeLid_mid_low_R",
      "translation" : [ 0.0781938, 0.0183181, 0.0365791 ],
      "rotation" : [ 0, -1.2326e-32, 0, -1 ]
    },
    {
      "name" : "eyeLid_mid_in_up_R",
      "translation" : [ 0.0820972, 0.0183468, 0.0276402 ],
      "rotation" : [ 0, -1.2326e-32, 0, -1 ]
    },
    {
      "name" : "eyeLid_mid_in_low_R",
      "translation" : [ 0.0821084, 0.0182369, 0.0276466 ],
      "rotation" : [ 0, -1.2326e-32, 0, -1 ]
    },
    {
      "name" : "eyeLid_mid_out_up_R",
      "translation" : [ 0.074265, 0.0184672, 0.0455492 ],
      "rotation" : [ 0, -1.2326e-32, 0, -1 ]
    },
    {
      "name" : "eyeLid_mid_out_low_R",
      "translation" : [ 0.0742761, 0.0183573, 0.0455556 ],
      "rotation" : [ 0, -1.2326e-32, 0, -1 ]
    },
    {
      "name" : "eyeLid_out_up_R",
      "translation" : [ 0.0701469, 0.0184951, 0.054895 ],
      "rotation" : [ 0, -1.2326e-32, 0, -1 ]
    },
    {
      "name" : "eyeLid_out_low_R",
      "translation" : [ 0.070158, 0.0183852, 0.0549014 ],
      "rotation" : [ 0, -1.2326e-32, 0, -1 ]
    },
    {
      "name" : "d_head",
      "translation" : [ 0, -0.0015, 9.18485e-20 ],
      "rotation" : [ -0, -0, 0, -1 ]
    },
    {
      "name" : "prop_00",
      "translation" : [ 0, 0, -0 ],
      "rotation" : [ -0, -0, 0, -1 ]
    },
    {
      "name" : "prop_01",
      "translation" : [ 0, 0, -0 ],
      "rotation" : [ -0, -0, 0, -1 ]
    },
    {
      "name" : "prop_02",
      "translation" : [ 0, 0, -0 ],
      "rotation" : [ -0, -0, 0, -1 ]
    }
  ],
  "skins" : [
    {
      "inverseBindMatrices" : 0,
      "skeleton" : 1,
      "joints" : [
        1,2,3,4,5,6,7,8,9,10,11,12,13,14,15,16,17,18,19,20,21,22,23,24,25,26,27,28,29,30,31,32,
        33,34,35,36,37,38,39,40,41,42,43,44,45,46,47,48,49,50,51,52,53,54,55,56,57
      ]
    }
  ],
  "materials" : [
    {
      "name" : "MI_am0020_RimLight_SM",
      "pbrMetallicRoughness" : {
        "baseColorFactor" : [ 0.3, 0.3, 0.3, 1.0 ],
        "metallicFactor" : 0.1,
        "roughnessFactor" : 0.5
      }
    },
    {
      "name" : "MI_am0020_emissive",
      "pbrMetallicRoughness" : {
        "baseColorFactor" : [ 0.9, 0.3, 0.3, 1.0 ],
        "metallicFactor" : 0.1,
        "roughnessFactor" : 0.5
      }
    },
    {
      "name" : "MI_am0020_Outline",
      "pbrMetallicRoughness" : {
        "baseColorFactor" : [ 0.3, 0.9, 0.3, 1.0 ],
        "metallicFactor" : 0.1,
        "roughnessFactor" : 0.5
      }
    },
    {
      "name" : "MI_am0020_RimLight_SM",
      "pbrMetallicRoughness" : {
        "baseColorFactor" : [ 0.3, 0.3, 0.9, 1.0 ],
        "metallicFactor" : 0.1,
        "roughnessFactor" : 0.5
      }
    },
    {
      "name" : "MI_am0020_RimLight_SM",
      "pbrMetallicRoughness" : {
        "baseColorFactor" : [ 0.9, 0.9, 0.9, 1.0 ],
        "metallicFactor" : 0.1,
        "roughnessFactor" : 0.5
      }
    }
  ],
  "meshes" : [
    {
      "primitives" : [
        {
          "attributes" : {
            "POSITION" : 2,
            "NORMAL" : 3,
            "TANGENT" : 4,
            "COLOR_0" : 5,
            "JOINTS_0" : 6,
            "WEIGHTS_0" : 7,
            "TEXCOORD_0" : 8,
            "TEXCOORD_1" : 9,
            "TEXCOORD_2" : 10
          },
          "indices" : 1,
          "material" : 0
        },
        {
          "attributes" : {
            "POSITION" : 12,
            "NORMAL" : 13,
            "TANGENT" : 14,
            "COLOR_0" : 15,
            "JOINTS_0" : 16,
            "WEIGHTS_0" : 17,
            "TEXCOORD_0" : 18,
            "TEXCOORD_1" : 19,
            "TEXCOORD_2" : 20
          },
          "indices" : 11,
          "material" : 1
        },
        {
          "attributes" : {
            "POSITION" : 22,
            "NORMAL" : 23,
            "TANGENT" : 24,
            "COLOR_0" : 25,
            "JOINTS_0" : 26,
            "WEIGHTS_0" : 27,
            "TEXCOORD_0" : 28,
            "TEXCOORD_1" : 29,
            "TEXCOORD_2" : 30
          },
          "indices" : 21,
          "material" : 2
        },
        {
          "attributes" : {
            "POSITION" : 32,
            "NORMAL" : 33,
            "TANGENT" : 34,
            "COLOR_0" : 35,
            "JOINTS_0" : 36,
            "WEIGHTS_0" : 37,
            "TEXCOORD_0" : 38,
            "TEXCOORD_1" : 39,
            "TEXCOORD_2" : 40
          },
          "indices" : 31,
          "material" : 3
        },
        {
          "attributes" : {
            "POSITION" : 42,
            "NORMAL" : 43,
            "TANGENT" : 44,
            "COLOR_0" : 45,
            "JOINTS_0" : 46,
            "WEIGHTS_0" : 47,
            "TEXCOORD_0" : 48,
            "TEXCOORD_1" : 49,
            "TEXCOORD_2" : 50
          },
          "indices" : 41,
          "material" : 4
        }
      ],
      "name" : "SK_am0020"
    }
  ],
  "buffers" : [
    {
      "uri" : "SK_am0020.bin",
      "byteLength" : 1320472
    }
  ],
  "bufferViews" : [
    {
      "buffer" : 0,
      "byteOffset" : 0,
      "byteLength" : 3648
    },
    {
      "buffer" : 0,
      "byteOffset" : 3648,
      "byteLength" : 47148
    },
    {
      "buffer" : 0,
      "byteOffset" : 50796,
      "byteLength" : 80052
    },
    {
      "buffer" : 0,
      "byteOffset" : 130848,
      "byteLength" : 80052
    },
    {
      "buffer" : 0,
      "byteOffset" : 210900,
      "byteLength" : 106736
    },
    {
      "buffer" : 0,
      "byteOffset" : 317636,
      "byteLength" : 26684
    },
    {
      "buffer" : 0,
      "byteOffset" : 344320,
      "byteLength" : 53368
    },
    {
      "buffer" : 0,
      "byteOffset" : 397688,
      "byteLength" : 26684
    },
    {
      "buffer" : 0,
      "byteOffset" : 424372,
      "byteLength" : 53368
    },
    {
      "buffer" : 0,
      "byteOffset" : 477740,
      "byteLength" : 53368
    },
    {
      "buffer" : 0,
      "byteOffset" : 531108,
      "byteLength" : 53368
    },
    {
      "buffer" : 0,
      "byteOffset" : 584476,
      "byteLength" : 5016
    },
    {
      "buffer" : 0,
      "byteOffset" : 589492,
      "byteLength" : 9864
    },
    {
      "buffer" : 0,
      "byteOffset" : 599356,
      "byteLength" : 9864
    },
    {
      "buffer" : 0,
      "byteOffset" : 609220,
      "byteLength" : 13152
    },
    {
      "buffer" : 0,
      "byteOffset" : 622372,
      "byteLength" : 3288
    },
    {
      "buffer" : 0,
      "byteOffset" : 625660,
      "byteLength" : 6576
    },
    {
      "buffer" : 0,
      "byteOffset" : 632236,
      "byteLength" : 3288
    },
    {
      "buffer" : 0,
      "byteOffset" : 635524,
      "byteLength" : 6576
    },
    {
      "buffer" : 0,
      "byteOffset" : 642100,
      "byteLength" : 6576
    },
    {
      "buffer" : 0,
      "byteOffset" : 648676,
      "byteLength" : 6576
    },
    {
      "buffer" : 0,
      "byteOffset" : 655252,
      "byteLength" : 50232
    },
    {
      "buffer" : 0,
      "byteOffset" : 705484,
      "byteLength" : 79596
    },
    {
      "buffer" : 0,
      "byteOffset" : 785080,
      "byteLength" : 79596
    },
    {
      "buffer" : 0,
      "byteOffset" : 864676,
      "byteLength" : 106128
    },
    {
      "buffer" : 0,
      "byteOffset" : 970804,
      "byteLength" : 26532
    },
    {
      "buffer" : 0,
      "byteOffset" : 997336,
      "byteLength" : 53064
    },
    {
      "buffer" : 0,
      "byteOffset" : 1050400,
      "byteLength" : 26532
    },
    {
      "buffer" : 0,
      "byteOffset" : 1076932,
      "byteLength" : 53064
    },
    {
      "buffer" : 0,
      "byteOffset" : 1129996,
      "byteLength" : 53064
    },
    {
      "buffer" : 0,
      "byteOffset" : 1183060,
      "byteLength" : 53064
    },
    {
      "buffer" : 0,
      "byteOffset" : 1236124,
      "byteLength" : 4008
    },
    {
      "buffer" : 0,
      "byteOffset" : 1240132,
      "byteLength" : 5880
    },
    {
      "buffer" : 0,
      "byteOffset" : 1246012,
      "byteLength" : 5880
    },
    {
      "buffer" : 0,
      "byteOffset" : 1251892,
      "byteLength" : 7840
    },
    {
      "buffer" : 0,
      "byteOffset" : 1259732,
      "byteLength" : 1960
    },
    {
      "buffer" : 0,
      "byteOffset" : 1261692,
      "byteLength" : 3920
    },
    {
      "buffer" : 0,
      "byteOffset" : 1265612,
      "byteLength" : 1960
    },
    {
      "buffer" : 0,
      "byteOffset" : 1267572,
      "byteLength" : 3920
    },
    {
      "buffer" : 0,
      "byteOffset" : 1271492,
      "byteLength" : 3920
    },
    {
      "buffer" : 0,
      "byteOffset" : 1275412,
      "byteLength" : 3920
    },
    {
      "buffer" : 0,
      "byteOffset" : 1279332,
      "byteLength" : 3780
    },
    {
      "buffer" : 0,
      "byteOffset" : 1283112,
      "byteLength" : 5604
    },
    {
      "buffer" : 0,
      "byteOffset" : 1288716,
      "byteLength" : 5604
    },
    {
      "buffer" : 0,
      "byteOffset" : 1294320,
      "byteLength" : 7472
    },
    {
      "buffer" : 0,
      "byteOffset" : 1301792,
      "byteLength" : 1868
    },
    {
      "buffer" : 0,
      "byteOffset" : 1303660,
      "byteLength" : 3736
    },
    {
      "buffer" : 0,
      "byteOffset" : 1307396,
      "byteLength" : 1868
    },
    {
      "buffer" : 0,
      "byteOffset" : 1309264,
      "byteLength" : 3736
    },
    {
      "buffer" : 0,
      "byteOffset" : 1313000,
      "byteLength" : 3736
    },
    {
      "buffer" : 0,
      "byteOffset" : 1316736,
      "byteLength" : 3736
    }
  ],
  "accessors" : [
    {
      "bufferView" : 0,
      "componentType" : 5126,
      "count" : 57,
      "type" : "MAT4"
    },
    {
      "bufferView" : 1,
      "componentType" : 5123,
      "count" : 23574,
      "type" : "SCALAR"
    },
    {
      "bufferView" : 2,
      "min" : [ -0.0969301, -0.0903037, -0.0947292 ],
      "max" : [ 0.100714, 0.102295, 0.0947292 ],
      "componentType" : 5126,
      "count" : 6671,
      "type" : "VEC3"
    },
    {
      "bufferView" : 3,
      "componentType" : 5126,
      "count" : 6671,
      "type" : "VEC3"
    },
    {
      "bufferView" : 4,
      "componentType" : 5126,
      "count" : 6671,
      "type" : "VEC4"
    },
    {
      "bufferView" : 5,
      "normalized" : true,
      "componentType" : 5121,
      "count" : 6671,
      "type" : "VEC4"
    },
    {
      "bufferView" : 6,
      "componentType" : 5123,
      "count" : 6671,
      "type" : "VEC4"
    },
    {
      "bufferView" : 7,
      "normalized" : true,
      "componentType" : 5121,
      "count" : 6671,
      "type" : "VEC4"
    },
    {
      "bufferView" : 8,
      "componentType" : 5126,
      "count" : 6671,
      "type" : "VEC2"
    },
    {
      "bufferView" : 9,
      "componentType" : 5126,
      "count" : 6671,
      "type" : "VEC2"
    },
    {
      "bufferView" : 10,
      "componentType" : 5126,
      "count" : 6671,
      "type" : "VEC2"
    },
    {
      "bufferView" : 11,
      "componentType" : 5123,
      "count" : 2508,
      "type" : "SCALAR"
    },
    {
      "bufferView" : 12,
      "min" : [ -0.0898081, -0.0830561, -0.090584 ],
      "max" : [ 0.0845973, 0.0802203, 0.090584 ],
      "componentType" : 5126,
      "count" : 822,
      "type" : "VEC3"
    },
    {
      "bufferView" : 13,
      "componentType" : 5126,
      "count" : 822,
      "type" : "VEC3"
    },
    {
      "bufferView" : 14,
      "componentType" : 5126,
      "count" : 822,
      "type" : "VEC4"
    },
    {
      "bufferView" : 15,
      "normalized" : true,
      "componentType" : 5121,
      "count" : 822,
      "type" : "VEC4"
    },
    {
      "bufferView" : 16,
      "componentType" : 5123,
      "count" : 822,
      "type" : "VEC4"
    },
    {
      "bufferView" : 17,
      "normalized" : true,
      "componentType" : 5121,
      "count" : 822,
      "type" : "VEC4"
    },
    {
      "bufferView" : 18,
      "componentType" : 5126,
      "count" : 822,
      "type" : "VEC2"
    },
    {
      "bufferView" : 19,
      "componentType" : 5126,
      "count" : 822,
      "type" : "VEC2"
    },
    {
      "bufferView" : 20,
      "componentType" : 5126,
      "count" : 822,
      "type" : "VEC2"
    },
    {
      "bufferView" : 21,
      "componentType" : 5123,
      "count" : 25116,
      "type" : "SCALAR"
    },
    {
      "bufferView" : 22,
      "min" : [ -0.0969301, -0.0903037, -0.0972423 ],
      "max" : [ 0.0956999, 0.149524, 0.0972423 ],
      "componentType" : 5126,
      "count" : 6633,
      "type" : "VEC3"
    },
    {
      "bufferView" : 23,
      "componentType" : 5126,
      "count" : 6633,
      "type" : "VEC3"
    },
    {
      "bufferView" : 24,
      "componentType" : 5126,
      "count" : 6633,
      "type" : "VEC4"
    },
    {
      "bufferView" : 25,
      "normalized" : true,
      "componentType" : 5121,
      "count" : 6633,
      "type" : "VEC4"
    },
    {
      "bufferView" : 26,
      "componentType" : 5123,
      "count" : 6633,
      "type" : "VEC4"
    },
    {
      "bufferView" : 27,
      "normalized" : true,
      "componentType" : 5121,
      "count" : 6633,
      "type" : "VEC4"
    },
    {
      "bufferView" : 28,
      "componentType" : 5126,
      "count" : 6633,
      "type" : "VEC2"
    },
    {
      "bufferView" : 29,
      "componentType" : 5126,
      "count" : 6633,
      "type" : "VEC2"
    },
    {
      "bufferView" : 30,
      "componentType" : 5126,
      "count" : 6633,
      "type" : "VEC2"
    },
    {
      "bufferView" : 31,
      "componentType" : 5123,
      "count" : 2004,
      "type" : "SCALAR"
    },
    {
      "bufferView" : 32,
      "min" : [ -0.0443428, 0.0502003, 0.0236012 ],
      "max" : [ 0.032794, 0.149524, 0.0972423 ],
      "componentType" : 5126,
      "count" : 490,
      "type" : "VEC3"
    },
    {
      "bufferView" : 33,
      "componentType" : 5126,
      "count" : 490,
      "type" : "VEC3"
    },
    {
      "bufferView" : 34,
      "componentType" : 5126,
      "count" : 490,
      "type" : "VEC4"
    },
    {
      "bufferView" : 35,
      "normalized" : true,
      "componentType" : 5121,
      "count" : 490,
      "type" : "VEC4"
    },
    {
      "bufferView" : 36,
      "componentType" : 5123,
      "count" : 490,
      "type" : "VEC4"
    },
    {
      "bufferView" : 37,
      "normalized" : true,
      "componentType" : 5121,
      "count" : 490,
      "type" : "VEC4"
    },
    {
      "bufferView" : 38,
      "componentType" : 5126,
      "count" : 490,
      "type" : "VEC2"
    },
    {
      "bufferView" : 39,
      "componentType" : 5126,
      "count" : 490,
      "type" : "VEC2"
    },
    {
      "bufferView" : 40,
      "componentType" : 5126,
      "count" : 490,
      "type" : "VEC2"
    },
    {
      "bufferView" : 41,
      "componentType" : 5123,
      "count" : 1890,
      "type" : "SCALAR"
    },
    {
      "bufferView" : 42,
      "min" : [ -0.0443428, 0.0502003, -0.0972423 ],
      "max" : [ 0.032794, 0.149524, -0.0236012 ],
      "componentType" : 5126,
      "count" : 467,
      "type" : "VEC3"
    },
    {
      "bufferView" : 43,
      "componentType" : 5126,
      "count" : 467,
      "type" : "VEC3"
    },
    {
      "bufferView" : 44,
      "componentType" : 5126,
      "count" : 467,
      "type" : "VEC4"
    },
    {
      "bufferView" : 45,
      "normalized" : true,
      "componentType" : 5121,
      "count" : 467,
      "type" : "VEC4"
    },
    {
      "bufferView" : 46,
      "componentType" : 5123,
      "count" : 467,
      "type" : "VEC4"
    },
    {
      "bufferView" : 47,
      "normalized" : true,
      "componentType" : 5121,
      "count" : 467,
      "type" : "VEC4"
    },
    {
      "bufferView" : 48,
      "componentType" : 5126,
      "count" : 467,
      "type" : "VEC2"
    },
    {
      "bufferView" : 49,
      "componentType" : 5126,
      "count" : 467,
      "type" : "VEC2"
    },
    {
      "bufferView" : 50,
      "componentType" : 5126,
      "count" : 467,
      "type" : "VEC2"
    }
  ]
}
